<svg xmlns="http://www.w3.org/2000/svg" viewBox="0 0 297.14 418.02"><defs><style>.cls-1{fill:#1d1d1b;}</style></defs><g id="Calque_2" data-name="Calque 2"><g id="Calque_1-2" data-name="Calque 1"><path class="cls-1" d="M183.54,71.31c-9.72,6.41-19.31,13-29,19.38a3.55,3.55,0,0,0-1.8,3.45q-.3,33.9-.69,67.8-.37,33.21-.81,66.43a3.14,3.14,0,0,0,1.55,3.13c2.81,1.9,5.38,4.15,8,6.27,3.84,3.07,7.65,6.19,11.53,9.23,5.11,4,10.29,7.91,15.4,11.91,6.2,4.85,12.34,9.77,18.52,14.63,4.4,3.45,8.88,6.82,13.25,10.31,2.43,1.94,3,2.1,5-.14,2.57-2.79,5.54-5.14,8.31-7.7,7.41-6.85,14.95-13.55,22.41-20.34,4.64-4.22,9.13-8.6,13.84-12.73q5.63-4.94,11.08-10.05c1.29-1.22,1.21-1.92-.3-3.07-2.28-1.73-4.69-3.25-7-4.91-4.26-3-8.41-6.25-12.7-9.25-6.07-4.25-12.25-8.33-18.32-12.57-8.71-6.07-17.3-12.32-26.1-18.26a5.12,5.12,0,0,1-2.59-5.47c1.42-13.8,2.69-27.61,4-41.42q2.61-26.94,5.25-53.87c1.19-12.3,2.68-24.57,3.36-36.84.41-1-.14-1.62-.86-2.17-.93-.71-1.54,0-2.22.42-4.48,2.82-8.87,5.76-13.26,8.7C200.82,59.93,192.17,65.61,183.54,71.31Z"/><path class="cls-1" d="M141.18,358.08a6.28,6.28,0,0,1-1.65-1.18c-.74-.78-1.42-1.23-2,0-.5,1.05-2.81,1.71-.73,3.4a12.73,12.73,0,0,0,7.24,2.94c5.72.08,9.48-2.84,10.58-7.67a10.63,10.63,0,0,0-4.84-12c-1.95-1.3-4.21-2.11-6-3.67a6.71,6.71,0,0,1-.94-9c1.91-2.36,5.64-2.61,8.33-.25,1.28,1.12,1.71.32,2.18-.47s2.37-1.35.73-2.86c-3.9-3.6-14.19-4-16.59,4.28-1.59,5.44.16,10.12,5,13.1,1.87,1.15,4,2,5.59,3.46a7,7,0,0,1,1.15,8.88C147.55,359.33,144.28,359.76,141.18,358.08Z"/><path class="cls-1" d="M207.22,362.38c1-.09,2.49.66,2.44-1.52-.11-5.38,0-10.76-.07-16.14a14.38,14.38,0,0,0-.93-5.34,5.75,5.75,0,0,0-6.07-3.81c-2.8.18-4.47,1.95-6.21,4.12a17.66,17.66,0,0,0-.22-2.19c-.45-2-2.07-.77-3.14-1s-1.13.47-1.12,1.36c.08,7.5.17,15,.11,22.5,0,1.69.38,2.25,2.11,2.11,1.41-.12,2.56.16,2.46-2-.19-4.54-.06-9.09,0-13.64a8.19,8.19,0,0,1,2.15-6c2.25-2.26,5.36-1.42,6.1,1.66a16.08,16.08,0,0,1,.36,3.61c0,4.92.12,9.85,0,14.77C205.07,362.63,206.07,362.48,207.22,362.38Z"/><path class="cls-1" d="M91.7,353.65a16,16,0,0,0,.94,5.8,5.64,5.64,0,0,0,5.81,3.84c3,0,4.71-2,6.58-4.13,0,.66.07,1.33.12,2,.19,2.31,1.95.93,3,1.21s1.31-.32,1.3-1.39c-.1-7.58-.18-15.15-.09-22.72,0-1.84-.8-1.9-2.16-1.83s-2.48-.3-2.41,1.85c.16,4.69,0,9.39,0,14.08a7.89,7.89,0,0,1-2.16,5.81c-2.26,2.24-5.37,1.38-6.08-1.71a18.15,18.15,0,0,1-.36-3.83c0-4.78-.1-9.55,0-14.32,0-1.74-.64-2-2.09-1.88-1.21.12-2.54-.42-2.47,1.78C91.79,343.34,91.65,348.5,91.7,353.65Z"/><path class="cls-1" d="M257.82,353.94a15.15,15.15,0,0,0,.95,5.57,5.62,5.62,0,0,0,5.64,3.78c3,0,4.81-1.85,6.59-4.87.13,1.43.14,2.17.28,2.89.42,2.06,2.06.79,3.12,1.05s1.14-.44,1.13-1.34c-.07-7.58-.16-15.16-.08-22.75,0-1.8-.74-1.95-2.14-1.85-1.24.09-2.5-.35-2.43,1.83.16,4.69.05,9.4,0,14.1a7.81,7.81,0,0,1-2.34,6c-2.19,2-5.12,1.17-5.85-1.67a15.83,15.83,0,0,1-.41-3.83c-.05-4.93-.12-9.86,0-14.79.05-1.92-1-1.64-2.14-1.58s-2.47-.59-2.43,1.56C257.87,343.32,257.75,348.63,257.82,353.94Z"/><path class="cls-1" d="M13.33,360.7c0,2.28,1.39,1.59,2.53,1.69s2.08,0,2-1.7c-.14-4.46-.07-8.93,0-13.4a9.88,9.88,0,0,1,1.73-6,3.88,3.88,0,0,1,4.16-1.69c1.67.35,2.25,1.7,2.55,3.15a15.31,15.31,0,0,1,.19,2.71c0,5.15.07,10.3,0,15.45,0,1.5.74,1.74,1.79,1.45S31,363.44,31,361.23c0-6.06.12-12.13-.15-18.17-.2-4.4-2-6.72-4.89-7.33-3.7-.78-6.07,1.06-7.75,4.13,0,0-.13,0-.43.06,0-.76-.07-1.44-.12-2.12-.21-2.38-2-1.08-3.15-1.33s-1.21.58-1.21,1.51C13.33,345.55,13.43,353.12,13.33,360.7Z"/><ellipse class="cls-1" cx="148.93" cy="376.1" rx="206.3" ry="0.27"/><path class="cls-1" d="M167,346.39a1.1,1.1,0,0,1-.45.05c-6.11.66-9.41,5.25-8.08,11.24a6.41,6.41,0,0,0,8,5.11c2-.47,3.11-2,4.25-4.12a19,19,0,0,0,.42,2.95c.49,1.44,1.77.56,2.68.75s.95-.34.93-1.08c-.17-6.06-.2-12.12-.49-18.18-.14-3.08-1.25-5.9-4.49-7-3.6-1.24-6.84-.35-9.74,2.07-1.34,1.11-.3,1.76.27,2.58s1.14,1.22,2.06.25a5,5,0,0,1,3.47-1.49c2.85-.12,4.33,1.5,4.61,5C170.76,347.74,168.18,345.75,167,346.39Zm3.6,4.23a13.34,13.34,0,0,1-1.08,5.72c-.84,1.74-2.08,3-4.22,2.71-1.81-.28-2.86-1.92-2.87-4.29a5.7,5.7,0,0,1,7.57-5.15C170.61,349.81,170.64,350.16,170.63,350.62Z"/><path class="cls-1" d="M254.14,357.88c-2,0-4.1-.15-6.13,0-2.27.21-3-.39-3-2.85.17-9.16,0-18.33.12-27.49,0-2.09-1.08-1.86-2.39-1.86s-2.45-.24-2.39,1.86c.16,5.45.06,10.9.06,16.35,0,5.61,0,11.21,0,16.81,0,1.28.33,1.7,1.64,1.67,4-.08,8-.1,12,0,1.66,0,1.51-1,1.31-1.89S256.44,357.86,254.14,357.88Z"/><path class="cls-1" d="M39.84,358.82a5.93,5.93,0,0,1-1.64-1.2c-.65-.72-1.06-.76-1.78,0-1.88,1.94-1.89,2.34.29,3.91A8.94,8.94,0,0,0,42,363.28c4.06.05,6.9-2.08,7.83-5.85,1-4.09-.46-7.54-4-9.39-1.21-.62-2.49-1.1-3.71-1.7a3.2,3.2,0,0,1-2-2.81c-.09-1.61.24-3.08,1.77-3.9a4,4,0,0,1,5,.87c.86.83,1.41.74,1.88-.2s2.14-1.1.9-2.5c-1.77-2-5.91-2.81-8.92-1.76a7.23,7.23,0,0,0-4.83,6.52c-.22,3.53,1.13,5.87,4.23,7.31a37.34,37.34,0,0,1,3.9,1.8,4.39,4.39,0,0,1,1.25,6C44.23,359.43,42,359.92,39.84,358.82Z"/><path class="cls-1" d="M216.63,358.2c.63,4,4,5.87,7.78,4.52,1.67-.6.65-1.93.85-2.91.13-.61-.16-.86-.91-.87-2.94,0-3.57-.62-3.63-3.53-.08-4,.15-8-.1-12-.15-2.49.54-3.48,3-3,1.85.36,1.6-.92,1.66-2.07s-.06-1.93-1.64-1.89c-3,.06-3-.05-3-3.13a12.14,12.14,0,0,1,0-1.81c.26-1.65-.47-2-2-2-1.79-.05-2.69.3-2.39,2.31.16,1,0,2.12.05,3.17.11,1.21-.33,1.7-1.52,1.49-1.65-.3-1.79.62-1.79,2s.14,2.26,1.79,2c1.38-.23,1.63.48,1.59,1.69-.08,2.42,0,4.85,0,7.75C216.51,352.3,216.16,355.26,216.63,358.2Z"/><path class="cls-1" d="M116.9,358.18c.72,4,3.94,5.87,7.77,4.54,1.67-.58.7-1.9.88-2.89.11-.59-.13-.87-.89-.89-3.06-.08-3.61-.63-3.66-3.73-.07-3.93.14-7.88-.09-11.8-.14-2.44.46-3.53,3-3,1.8.36,1.65-.86,1.69-2.05s0-1.94-1.63-1.91c-3,.05-3-.06-3-3.12a12.14,12.14,0,0,1,0-1.81c.26-1.64-.47-1.91-2-2-2.1-.15-2.65.62-2.39,2.53.13,1,0,2,0,2.94.1,1.18-.3,1.73-1.5,1.51-1.64-.3-1.82.59-1.8,1.94s.07,2.29,1.77,2c1.37-.24,1.62.47,1.58,1.68-.08,2.42,0,4.85,0,7.77C116.8,352.29,116.38,355.25,116.9,358.18Z"/><path class="cls-1" d="M55.58,358c.37,4.08,4,6.17,7.81,4.7,1.6-.62.62-1.95.81-2.95.11-.6-.12-.84-.9-.82-2.82.07-3.58-.63-3.64-3.53-.08-4,.14-8-.1-12-.15-2.46.5-3.49,3-3,1.83.37,1.64-.88,1.68-2.05s0-1.95-1.62-1.92c-3,.07-3-.05-3-3.11a13.88,13.88,0,0,1,0-2c.21-1.45-.45-1.67-1.78-1.77-2.08-.15-2.89.51-2.57,2.6.13.89-.06,1.82,0,2.72.13,1.25-.27,1.89-1.59,1.65-1.77-.32-1.71.8-1.72,2s0,2.18,1.63,1.91,1.83.61,1.78,2c-.09,2.34,0,4.69,0,7h.13C55.53,352.26,55.32,355.16,55.58,358Z"/><path class="cls-1" d="M79.53,356.41A8.19,8.19,0,0,0,80.68,361c1.19,1.82,4.49,2.7,6.8,1.72,1.83-.78.44-2.39,1-3.8-3.62.45-4.62-.36-4.69-3.68-.06-3.71,0-7.42,0-11.13,0-3.35,0-3.44,3.39-3.65,1.51-.1,1.29-1,1.19-1.86s.7-2.11-1.1-2.13c-1.11,0-2.65.56-3.21-.29s-.23-2.32-.27-3.51c0-.68,0-1.36,0-2.05a.88.88,0,0,0-.84-1c-2.74-.57-3.49,0-3.49,2.76,0,.83-.06,1.67,0,2.49.12,1.23-.22,1.92-1.58,1.67-1.74-.32-1.73.76-1.73,2s0,2.19,1.61,1.92,1.82.57,1.81,1.94C79.47,347,79.52,351.72,79.53,356.41Z"/><path class="cls-1" d="M210,394.41c0-.82.38-1.94-1.19-1.86-1.42.08-1,1.13-1,1.84,0,5.15,0,10.3,0,15.45,0,.73.26,1.58-.59,2.39-.46-1-.86-1.81-1.19-2.63-2.18-5.24-4.38-10.47-6.47-15.75-.52-1.3-1.4-1.35-2.5-1.3-1.46.07-.92,1.17-.92,1.86q-.06,10.56,0,21.13c0,.72-.43,1.8,1,1.78s1-1.1,1-1.82c0-4.92,0-9.84,0-14.76v-3.25l.62-.11c.39.86.8,1.71,1.17,2.58,2.25,5.37,4.54,10.73,6.7,16.14.55,1.39,1.49,1.28,2.54,1.19,1.23-.1.81-1.1.81-1.75C210.06,408.5,210.05,401.45,210,394.41Z"/><path class="cls-1" d="M283.26,359.19c1.65,3.31,5.26,4.69,8.91,3.95,3.94-.8,4.43-2,2.09-5.41-3.08,2.38-6,2.19-7.26-.8a18.19,18.19,0,0,1,.15-15.19,3.58,3.58,0,0,1,5.71-1.51c2,1.43,1.82-.65,2.49-1.24,1-.92.53-1.58-.5-2.23a8.28,8.28,0,0,0-11.61,3A20.56,20.56,0,0,0,283.26,359.19Z"/><path class="cls-1" d="M4,362.4c1.3,0,2.44.26,2.37-1.85-.16-5.46,0-10.92,0-16.38s-.11-11.08,0-16.61c.06-2.13-1.12-1.82-2.4-1.84s-2.38-.19-2.36,1.88q.18,16.5,0,33C1.62,362.74,2.78,362.39,4,362.4Z"/><path class="cls-1" d="M47.37,395.57a18.78,18.78,0,0,0,.12,18.92c2.68,4.79,8.59,4.63,11.53,0,1.79-2.84,2.29-6,2.22-9.76a17.86,17.86,0,0,0-2-8.83C56.41,390.83,50.13,390.49,47.37,395.57Zm9.87,17.85a4.24,4.24,0,0,1-4.13,2.72,4.65,4.65,0,0,1-4-2.87,16.46,16.46,0,0,1-1.54-8.11c0-3.09.15-5.87,1.49-8.44a4.64,4.64,0,0,1,4.27-2.88,4.34,4.34,0,0,1,4,2.87A20.06,20.06,0,0,1,57.24,413.42Z"/><path class="cls-1" d="M157.57,404.7c2.46-1.37,3.41-4.58,2.61-7.58s-2.73-4.46-6-4.55c-1.52-.05-3,.06-4.55,0-1.15-.07-1.4.4-1.39,1.45,0,7.27,0,14.55,0,21.82,0,.74-.17,1.52,1.06,1.54s1.14-.88,1.14-1.68c0-2.5,0-5,0-7.5,0-.78-.55-2,.91-2.15,1.31-.15,2.49-.19,3.07,1.5,1,2.78,2.2,5.47,3.21,8.24.52,1.41,1.26,2,2.86,1.29-1.26-3.16-2.48-6.33-3.81-9.46C156.19,406.3,156.08,405.53,157.57,404.7Zm-6.15-.59a1.1,1.1,0,0,1-.94-1.28c0-1.21,0-2.42,0-3.62h0a3,3,0,0,1,0-1.13c.53-1.24-1.45-3.6,1.7-3.69,3.87-.11,5.74,1.07,6,3.94C158.63,402.79,155.79,405.18,151.42,404.11Z"/><path class="cls-1" d="M109.86,392.53c-1.44,0-1.08,1-1.08,1.73,0,4.69,0,9.38.06,14.08a13.62,13.62,0,0,1-.73,4.91,4.14,4.14,0,0,1-4,2.89,4,4,0,0,1-4.06-2.71,10.35,10.35,0,0,1-.72-4.21c.06-5.07,0-10.15,0-15.22,0-.82,0-1.46-1.16-1.47s-1.1.72-1.1,1.5c0,5.6-.08,11.21.08,16.81.13,4.61,2.89,7.07,7.39,7,3.63-.09,6.08-2.81,6.28-7.2.13-2.72,0-5.45,0-8.18h0c0-2.73,0-5.45,0-8.18C110.93,393.5,111.28,392.54,109.86,392.53Z"/><path class="cls-1" d="M259.81,415.34q-2.55-10.36-5.08-20.73c-.27-1.1-.35-2.07-2-2.13-1.83-.05-1.9,1.1-2.18,2.24Q248,405,245.42,415.21c-.17.68-1,1.65.2,2.07s1.6-.42,1.89-1.53c1.22-4.68,1.26-4.67,6.15-4.66a8.51,8.51,0,0,0,1.13,0c1.31-.15,2,.45,2.17,1.72s.63,2.5.89,3.76c.21,1,1,.74,1.61.77s.72-.39.62-1.06C260,416.06,259.9,415.7,259.81,415.34Zm-4.1-6.4c-1.55,1.07-3.8.38-5.75.32-.82,0-.86-.7-.7-1.35l2.94-12.49h.63c1,2,1.06,4.29,1.71,6.4a19.5,19.5,0,0,1,.68,3.1C255.41,406.32,256.71,408.25,255.71,408.94Z"/><path class="cls-1" d="M182.59,336.4c-1-.13-2-.25-2,1.5.14,3.78,0,7.57,0,11.35s.09,7.73,0,11.58c-.05,1.68.84,1.72,1.94,1.54s2.58.87,2.56-1.39c-.05-7.72-.06-15.44,0-23.17C185.14,335.56,183.58,336.53,182.59,336.4Z"/><path class="cls-1" d="M69.77,336.4c-1.07-.13-2-.22-2,1.51.14,3.78,0,7.57,0,11.35s.09,7.72,0,11.57c-.06,1.69.84,1.73,1.94,1.54s2.58.88,2.57-1.38q-.08-11.58,0-23.15C72.31,335.62,70.76,336.53,69.77,336.4Z"/><path class="cls-1" d="M10.75,392.56c-3.33,0-6.67,0-10,0-.65,0-.74.38-.74.87s.06.94.68,1a10,10,0,0,0,1.81,0c1.66-.21,2.29.37,2.22,2.13-.14,3.18,0,6.36,0,9.55s0,6.22,0,9.33c0,.77-.52,2,1.1,1.91,1.45-.06.91-1.17.92-1.86,0-5.61,0-11.22,0-16.84,0-3.74,0-3.74,3.73-4.2h.23c.7,0,.92-.36.88-1S11.34,392.56,10.75,392.56Z"/><path class="cls-1" d="M16.26,231c3.85,3.52,7.68,7.06,11.57,10.53,4.62,4.12,9.34,8.12,14,12.26,5.12,4.58,10.15,9.26,15.24,13.88.46.42.85,1.06,1.62,1,.06.2.06.47.19.6,5.59,5.1,11.22,10.17,16.78,15.3,1.45,1.33,2.67.93,4-.11,7.84-6.29,15.66-12.61,23.54-18.85,8.12-6.42,16.39-12.67,24.45-19.17,6.65-5.36,13.31-10.7,20.09-15.9a3.46,3.46,0,0,0,1.52-3c-.07-4.32,0-8.64.06-13q.35-60.74.65-121.48a3.58,3.58,0,0,1,1.89-3.5c2.78-1.67,5.49-3.48,8.2-5.27q10.86-7.2,21.71-14.44l11.71-7.77c4-2.68,8.06-5.39,12.11-8,4.62-3,9.29-6,13.89-9,.88-.58,2.06-1.17,1.76-2.64s-1.68-1.83-2.72-2.42c-4.8-2.74-9.68-5.32-14.49-8-7.69-4.37-15.32-8.84-23-13.22-10.58-6-21.3-11.83-31.73-18.12a3.24,3.24,0,0,0-3.64,0c-7.1,4.35-14.43,8.3-21.66,12.42-7.75,4.42-15.41,9-23.17,13.43C92.53,31.07,84.25,35.65,76,40.3c-.8.45-1.91.71-1.94,2,.61,14.67,2.31,29.26,3.35,43.91.62,8.66,1.62,17.3,2.33,26,.95,11.47,1.6,23,2.71,34.42,1.1,11.29,2.26,22.57,2.93,33.9-.63.53-1.22,1.12-1.89,1.59-6.1,4.22-12.26,8.34-18.3,12.64-7.27,5.16-14.64,10.19-21.9,15.37-8.69,6.19-17.45,12.28-26.16,18.43-.51.36-1.34.54-1.14,1.48A1.06,1.06,0,0,0,16.26,231Z"/><path class="cls-1" d="M297.12,394c0-.62.24-1.38-.9-1.41s-1.11.7-1.11,1.48v21.82c0,.74-.16,1.53,1.06,1.52s1-.7,1-1.36C297.13,408.65,297.14,401.3,297.12,394Z"/><path class="cls-1" d="M233.19,346.52a34.52,34.52,0,0,1-4.77,0c-1.24-.07-1.45.45-1.53,1.58-.12,1.76.23,2.77,2.27,2.42a9.93,9.93,0,0,1,1.81,0,15.61,15.61,0,0,1,2.27,0c1.63.23,2-.45,2-2S234.75,346.39,233.19,346.52Z"/><path class="cls-1" d="M183,325.79c-1.8,0-2.73,1.07-2.78,2.86s.83,3,2.6,3.05,2.67-1.15,2.87-3C185.49,327.14,184.79,325.82,183,325.79Z"/><path class="cls-1" d="M69.94,325.76a3,3,0,0,0,.2,6,2.75,2.75,0,0,0,2.65-2.86C72.73,327,71.46,325.61,69.94,325.76Z"/></g></g></svg>