<?xml version="1.0" encoding="utf-8"?>
<!-- Generator: Adobe Illustrator 16.0.0, SVG Export Plug-In . SVG Version: 6.00 Build 0)  -->
<!DOCTYPE svg PUBLIC "-//W3C//DTD SVG 1.0//EN" "http://www.w3.org/TR/2001/REC-SVG-20010904/DTD/svg10.dtd">
<svg version="1.0" id="Calque_1" xmlns="http://www.w3.org/2000/svg" xmlns:xlink="http://www.w3.org/1999/xlink" x="0px" y="0px"
	 width="300px" height="330px" viewBox="0 0 300 330" enable-background="new 0 0 300 330" xml:space="preserve">
<g>
	<g>
		<path d="M13.672,262.653h6.617v-32.19H10.088v6.964H4.573v-11.855h37.499v11.855h-5.584v-6.964H26.355v32.19h6.619v4.895H13.672
			V262.653z"/>
		<path d="M47.139,262.653h6.205v-32.19h-6.205v-4.892h33.982v11.787H75.54v-6.896H59.409v13.512H76.78v4.892H59.409v13.787h16.269
			v-7.099h5.651v11.993H47.139V262.653z"/>
		<path d="M87.188,262.653h6.203v-32.19h-6.203v-4.892h18.265v4.892h-5.997v32.19h6.548v4.895H87.188V262.653z M102.213,246.732
			v-0.416l15.232-15.921h-5.445v-4.824h17.645v4.892h-5.307L109.52,246.18l14.406,16.474h6.342v4.895h-10.065L102.213,246.732z"/>
		<path d="M134.854,262.653h6.204v-32.19h-6.204v-4.892h12.406l22.676,32.188v-27.297h-6.134v-4.892h18.059v4.892h-6.135v37.085
			h-5.443l-23.504-33.153v28.259h6.133v4.895h-18.057V262.653z"/>
		<path d="M186.407,262.653h6.204v-32.19h-6.204v-4.892h18.407v4.892h-6.137v32.19h6.137v4.895h-18.407V262.653z"/>
		<g>
			<polygon points="222.319,230.463 228.317,230.463 228.317,225.571 210.051,225.571 210.051,230.463 216.253,230.463 
				216.253,262.653 210.051,262.653 210.051,267.548 228.867,267.548 228.867,262.653 222.319,262.653 			"/>
			<path d="M290.784,262.653l-15.026-37.082h-14.752v4.892h5.999l-13.028,32.19h-7.185l-14.409-16.474l14.817-15.717h5.31v-4.892
				h-17.644v4.824h5.442l-15.231,15.921v0.416l17.988,20.815h23.11v-4.895h-6.203l3.172-8.064h18.127l3.241,8.064h-6.273v4.895
				h17.989v-4.895H290.784z M265.073,249.695l7.171-18.265l7.166,18.265H265.073z"/>
		</g>
		<rect x="105.494" y="285.229" width="87.894" height="0.88"/>
		<path d="M28.68,309.639h1.211v-6.278H28.68v-0.953h3.763v0.953h-1.37v6.278h3.172v-1.468h1.101v2.42H28.68V309.639z"/>
		<path d="M35.562,309.639h1.049l2.541-6.278H37.98v-0.953h2.878l2.93,7.231h1.062v0.952h-3.508v-0.952h1.224l-0.632-1.575h-3.535
			l-0.618,1.575h1.209v0.952h-3.428V309.639z M41.571,307.112l-1.399-3.563l-1.397,3.563H41.571z"/>
		<path d="M47.863,310.322v-1.908h1.075v1.17c0.402,0.108,1.02,0.215,1.666,0.215c1.129,0,1.935-0.377,1.935-1.236
			c0-2.098-4.543-1.113-4.543-4.06c0-1.505,1.197-2.259,2.931-2.259c0.873,0,1.827,0.189,2.5,0.418v1.881h-1.09v-1.183
			c-0.346-0.08-0.873-0.161-1.37-0.161c-1.115,0-1.827,0.431-1.827,1.197c0,1.961,4.544,1.047,4.544,4.085
			c0,1.626-1.319,2.272-3.013,2.272C49.676,310.754,48.627,310.538,47.863,310.322z"/>
		<path d="M54.757,309.639h1.209v-6.278h-1.209v-0.953h6.625v2.298h-1.086v-1.345h-3.144v2.637h3.386v0.953h-3.386v2.688h3.171
			v-1.387h1.102v2.339h-6.667V309.639z"/>
		<path d="M62.581,306.533c0-2.607,1.693-4.289,4.352-4.289c1.211,0,2.34,0.351,2.933,0.634v2.15h-1.144v-1.506
			c-0.456-0.162-1.129-0.282-1.732-0.282c-1.855,0-3.187,1.145-3.187,3.238c0,2.191,1.464,3.255,3.238,3.255
			c1.075,0,2.098-0.403,2.825-0.821v1.13c-0.604,0.32-1.641,0.712-2.917,0.712C64.368,310.754,62.581,309.194,62.581,306.533z"/>
		<path d="M72.42,309.639h1.29v-6.278h-1.989v1.359h-1.076v-2.312h7.312v2.312h-1.089v-1.359h-1.976v6.278h1.29v0.952H72.42V309.639
			z"/>
		<path d="M78.739,309.639h1.208v-6.278h-1.208v-0.953h3.587v0.953h-1.195v6.278h1.195v0.952h-3.587V309.639z"/>
		<path d="M83.214,306.506c0-2.472,1.707-4.262,4.205-4.262c2.501,0,4.208,1.79,4.208,4.262c0,2.475-1.707,4.248-4.208,4.248
			C84.921,310.754,83.214,308.98,83.214,306.506z M90.416,306.506c0-1.988-1.235-3.266-2.997-3.266c-1.745,0-2.983,1.29-2.983,3.266
			c0,1.988,1.223,3.252,2.983,3.252C89.167,309.758,90.416,308.481,90.416,306.506z"/>
		<path d="M92.516,309.639h1.209v-6.278h-1.209v-0.953h2.42l4.42,6.275v-5.322H98.16v-0.953h3.524v0.953h-1.197v7.23h-1.062
			l-4.583-6.465v5.513h1.195v0.952h-3.521V309.639z"/>
		<path d="M106.725,309.639h1.288v-6.278h-1.988v1.359h-1.075v-2.312h7.311v2.312h-1.087v-1.359h-1.977v6.278h1.291v0.952h-3.763
			V309.639z"/>
		<path d="M113.04,309.639h1.21v-6.278h-1.21v-0.953h6.628v2.298h-1.089v-1.345h-3.145v2.637h3.386v0.953h-3.386v2.688h3.172v-1.387
			h1.103v2.339h-6.669V309.639z"/>
		<path d="M120.866,306.533c0-2.607,1.693-4.289,4.354-4.289c1.21,0,2.339,0.351,2.932,0.634v2.15h-1.144v-1.506
			c-0.458-0.162-1.129-0.282-1.735-0.282c-1.854,0-3.183,1.145-3.183,3.238c0,2.191,1.463,3.255,3.237,3.255
			c1.075,0,2.097-0.403,2.824-0.821v1.13c-0.606,0.32-1.641,0.712-2.919,0.712C122.653,310.754,120.866,309.194,120.866,306.533z"/>
		<path d="M129.172,309.639h1.208v-6.278h-1.208v-0.953h3.601v0.953h-1.208v2.623h4.382v-2.623h-1.211v-0.953h3.588v0.953h-1.194
			v6.278h1.194v0.952h-3.588v-0.952h1.211v-2.662h-4.382v2.662h1.208v0.952h-3.601V309.639z"/>
		<path d="M139.36,309.639h1.21v-6.278h-1.21v-0.953h2.421l4.421,6.275v-5.322h-1.197v-0.953h3.522v0.953h-1.197v7.23h-1.062
			l-4.581-6.465v5.513h1.195v0.952h-3.521V309.639z"/>
		<path d="M149.413,309.639h1.21v-6.278h-1.21v-0.953h3.592v0.953h-1.197v6.278h1.197v0.952h-3.592V309.639z"/>
		<path d="M157.963,310.754c-2.434-0.081-4.06-1.828-4.06-4.248c0-2.472,1.693-4.262,4.208-4.262c2.499,0,4.206,1.79,4.206,4.262
			c0,2.018-1.129,3.576-2.929,4.058l1.718,1.008l-0.632,0.902L157.963,310.754z M161.106,306.506c0-1.988-1.236-3.266-2.995-3.266
			c-1.762,0-2.998,1.29-2.998,3.266c0,1.988,1.236,3.252,2.998,3.252C159.858,309.758,161.106,308.481,161.106,306.506z"/>
		<path d="M164.199,307.863v-4.503h-1.196v-0.953h3.574v0.953h-1.196v4.409c0,1.396,0.955,1.923,2.085,1.923
			c1.129,0,2.055-0.538,2.055-1.936v-4.396h-1.233v-0.953h3.532v0.953h-1.194v4.423c0,1.896-1.264,2.971-3.2,2.971
			C165.678,310.754,164.199,309.867,164.199,307.863z"/>
		<path d="M172.6,309.639h1.21v-6.278h-1.21v-0.953h6.626v2.298h-1.087v-1.345h-3.146v2.637h3.389v0.953h-3.389v2.688h3.173v-1.387
			h1.103v2.339H172.6V309.639z"/>
		<path d="M180.506,310.322v-1.908h1.073v1.17c0.403,0.108,1.021,0.215,1.666,0.215c1.128,0,1.936-0.377,1.936-1.236
			c0-2.098-4.543-1.113-4.543-4.06c0-1.505,1.197-2.259,2.934-2.259c0.871,0,1.825,0.189,2.497,0.418v1.881h-1.088v-1.183
			c-0.349-0.08-0.875-0.161-1.372-0.161c-1.116,0-1.827,0.431-1.827,1.197c0,1.961,4.543,1.047,4.543,4.085
			c0,1.626-1.316,2.272-3.012,2.272C182.318,310.754,181.271,310.538,180.506,310.322z"/>
		<path d="M190.357,306.546c0-2.524,1.585-4.302,4.422-4.302c1.265,0,2.432,0.351,3.105,0.675v1.974h-1.102v-1.33
			c-0.526-0.162-1.238-0.322-1.963-0.322c-2.071,0-3.279,1.277-3.279,3.279c0,2.017,1.208,3.227,3.252,3.227
			c0.766,0,1.45-0.176,2.03-0.392v-2.122h-1.908v-0.941h3.763v0.941h-0.753v2.742c-0.633,0.336-1.735,0.779-3.159,0.779
			C192.037,310.754,190.357,309.142,190.357,306.546z"/>
		<path d="M199.523,309.639h1.211v-6.278h-1.211v-0.953h3.832c1.962,0,3.264,0.969,3.264,2.499c0,1.103-0.657,1.922-1.801,2.243
			l1.387,2.489h1.129v0.952h-1.937l-1.732-3.128h-1.747v2.176h1.195v0.952h-3.59V309.639z M203.381,306.533
			c1.452,0,2.045-0.671,2.045-1.586c0-0.913-0.607-1.587-2.045-1.587h-1.463v3.173H203.381z"/>
		<path d="M207.589,309.639h1.051l2.538-6.278h-1.169v-0.953h2.876l2.929,7.231h1.063v0.952h-3.508v-0.952h1.221l-0.63-1.575h-3.533
			l-0.621,1.575h1.211v0.952h-3.428V309.639z M213.598,307.112l-1.398-3.563l-1.396,3.563H213.598z"/>
		<path d="M217.281,309.639h1.208v-6.278h-1.208v-0.953h3.71c1.976,0,3.265,1.007,3.265,2.594c0,1.585-1.289,2.595-3.265,2.595
			h-1.318v2.043h1.451v0.952h-3.843V309.639z M219.673,306.641h1.347c1.449,0,2.041-0.726,2.041-1.64
			c0-0.913-0.592-1.641-2.041-1.641h-1.347V306.641z"/>
		<path d="M225.023,309.639h1.211v-6.278h-1.211v-0.953h3.602v0.953h-1.209v2.623h4.381v-2.623h-1.21v-0.953h3.59v0.953h-1.197
			v6.278h1.197v0.952h-3.59v-0.952h1.21v-2.662h-4.381v2.662h1.209v0.952h-3.602V309.639z"/>
		<path d="M235.214,309.639h1.209v-6.278h-1.209v-0.953h3.587v0.953h-1.195v6.278h1.195v0.952h-3.587V309.639z"/>
		<path d="M243.761,310.754c-2.432-0.081-4.058-1.828-4.058-4.248c0-2.472,1.693-4.262,4.204-4.262c2.502,0,4.211,1.79,4.211,4.262
			c0,2.018-1.131,3.576-2.933,4.058l1.723,1.008l-0.632,0.902L243.761,310.754z M246.908,306.506c0-1.988-1.238-3.266-3.001-3.266
			c-1.757,0-2.995,1.29-2.995,3.266c0,1.988,1.238,3.252,2.995,3.252C245.657,309.758,246.908,308.481,246.908,306.506z"/>
		<path d="M250,307.863v-4.503h-1.196v-0.953h3.573v0.953h-1.195v4.409c0,1.396,0.955,1.923,2.084,1.923s2.056-0.538,2.056-1.936
			v-4.396h-1.235v-0.953h3.532v0.953h-1.196v4.423c0,1.896-1.261,2.971-3.195,2.971C251.477,310.754,250,309.867,250,307.863z"/>
		<path d="M258.4,309.639h1.21v-6.278h-1.21v-0.953h6.626v2.298h-1.087v-1.345h-3.147v2.637h3.386v0.953h-3.386v2.688h3.171v-1.387
			h1.104v2.339H258.4V309.639z"/>
		<path d="M266.305,310.322v-1.908h1.075v1.17c0.403,0.108,1.021,0.215,1.666,0.215c1.13,0,1.936-0.377,1.936-1.236
			c0-2.098-4.543-1.113-4.543-4.06c0-1.505,1.196-2.259,2.929-2.259c0.874,0,1.828,0.189,2.502,0.418v1.881h-1.089v-1.183
			c-0.35-0.08-0.875-0.161-1.373-0.161c-1.115,0-1.826,0.431-1.826,1.197c0,1.961,4.543,1.047,4.543,4.085
			c0,1.626-1.317,2.272-3.012,2.272C268.116,310.754,267.071,310.538,266.305,310.322z"/>
		<path d="M45.818,327.63h1.211v-6.276h-1.211V320.4h3.79c2.662,0,4.342,1.505,4.342,4.098c0,2.582-1.68,4.086-4.342,4.086h-3.79
			V327.63z M49.608,327.63c2.002,0,3.132-1.157,3.132-3.132c0-1.988-1.13-3.145-3.132-3.145H48.21v6.276H49.608z"/>
		<path d="M54.864,327.63h1.21v-6.276h-1.21V320.4h6.627v2.297h-1.088v-1.344h-3.145v2.634h3.387v0.956h-3.387v2.687h3.169v-1.384
			h1.104v2.338h-6.667V327.63z"/>
		<path d="M65.605,327.63h1.208v-6.276h-1.208V320.4h3.763v0.953h-1.372v6.276h3.171v-1.465h1.104v2.419h-6.667V327.63z"/>
		<path d="M72.486,327.63h1.05l2.539-6.276h-1.168V320.4h2.875l2.93,7.229h1.062v0.954h-3.507v-0.954h1.223l-0.633-1.571h-3.534
			l-0.617,1.571h1.208v0.954h-3.427V327.63z M78.495,325.104l-1.397-3.562l-1.399,3.562H78.495z"/>
		<path d="M84.692,327.63h1.209v-6.276h-1.209V320.4h3.602v0.953h-1.208v2.62h4.38v-2.62h-1.209V320.4h3.588v0.953h-1.195v6.276
			h1.195v0.954h-3.588v-0.954h1.209v-2.663h-4.38v2.663h1.208v0.954h-3.602V327.63z"/>
		<path d="M94.356,327.63h1.05l2.54-6.276h-1.172V320.4h2.878l2.931,7.229h1.062v0.954h-3.508v-0.954h1.222l-0.633-1.571h-3.534
			l-0.619,1.571h1.21v0.954h-3.429V327.63z M100.365,325.104l-1.396-3.562l-1.399,3.562H100.365z"/>
		<path d="M104.627,325.856v-4.503h-1.198V320.4h3.576v0.953h-1.196v4.408c0,1.399,0.955,1.923,2.083,1.923
			c1.129,0,2.057-0.538,2.057-1.935v-4.396h-1.236V320.4h3.531v0.953h-1.195v4.422c0,1.895-1.263,2.972-3.197,2.972
			C106.105,328.747,104.627,327.859,104.627,325.856z"/>
		<path d="M114.56,327.63h1.289v-6.276h-1.989v1.357h-1.075V320.4h7.31v2.311h-1.087v-1.357h-1.974v6.276h1.29v0.954h-3.764V327.63z
			"/>
		<path d="M120.879,327.63h1.21v-6.276h-1.21V320.4h6.625v2.297h-1.088v-1.344h-3.144v2.634h3.385v0.956h-3.385v2.687h3.171v-1.384
			h1.102v2.338h-6.666V327.63z"/>
		<path d="M131.62,327.63h1.208v-6.276h-1.208V320.4h6.624v2.297h-1.089v-1.344h-3.145v2.634h3.387v0.956h-3.387v2.687h3.172v-1.384
			h1.103v2.338h-6.665V327.63z"/>
		<path d="M139.44,324.526c0-2.607,1.695-4.289,4.355-4.289c1.209,0,2.338,0.351,2.929,0.633v2.148h-1.141v-1.504
			c-0.458-0.161-1.128-0.282-1.734-0.282c-1.854,0-3.185,1.143-3.185,3.24c0,2.189,1.464,3.252,3.24,3.252
			c1.074,0,2.095-0.403,2.82-0.82v1.129c-0.604,0.322-1.639,0.714-2.915,0.714C141.229,328.747,139.44,327.188,139.44,324.526z"/>
		<path d="M147.749,324.498c0-2.472,1.707-4.261,4.204-4.261c2.502,0,4.21,1.789,4.21,4.261c0,2.474-1.708,4.249-4.21,4.249
			C149.456,328.747,147.749,326.972,147.749,324.498z M154.951,324.498c0-1.988-1.237-3.266-2.999-3.266
			c-1.744,0-2.981,1.291-2.981,3.266c0,1.989,1.224,3.254,2.981,3.254C153.7,327.752,154.951,326.473,154.951,324.498z"/>
		<path d="M157.049,327.63h1.209v-6.276h-1.209V320.4h3.764v0.953h-1.371v6.276h3.17v-1.465h1.102v2.419h-6.664V327.63z"/>
		<path d="M164.455,327.63h1.208v-6.276h-1.208V320.4h6.626v2.297h-1.088v-1.344h-3.146v2.634h3.386v0.956h-3.386v2.687h3.171
			v-1.384h1.103v2.338h-6.665V327.63z"/>
		<path d="M175.194,327.63h1.208v-6.276h-1.208V320.4h6.625v2.297h-1.089v-1.344h-3.145v2.634h3.388v0.956h-3.388v2.687h3.173
			v-1.384h1.102v2.338h-6.666V327.63z"/>
		<path d="M183.004,327.63h1.209v-6.276h-1.209V320.4h2.42l4.422,6.275v-5.322h-1.197V320.4h3.521v0.953h-1.195v7.23h-1.062
			l-4.584-6.465v5.511h1.194v0.954h-3.52V327.63z"/>
		<path d="M195.99,327.63h1.207v-6.276h-1.207V320.4h3.601v0.953h-1.211v2.62h4.384v-2.62h-1.211V320.4h3.591v0.953h-1.197v6.276
			h1.197v0.954h-3.591v-0.954h1.211v-2.663h-4.384v2.663h1.211v0.954h-3.601V327.63z"/>
		<path d="M205.653,327.63h1.048l2.541-6.276h-1.169V320.4h2.876l2.929,7.229h1.062v0.954h-3.507v-0.954h1.222l-0.631-1.571h-3.535
			l-0.619,1.571h1.211v0.954h-3.428V327.63z M211.66,325.104l-1.396-3.562l-1.396,3.562H211.66z"/>
		<path d="M215.346,327.63h1.208v-6.276h-1.208V320.4h3.587v0.953h-1.195v6.276h1.195v0.954h-3.587V327.63z"/>
		<path d="M219.954,327.63h1.211v-6.276h-1.211V320.4h2.42l4.422,6.275v-5.322h-1.194V320.4h3.521v0.953h-1.197v7.23h-1.062
			l-4.583-6.465v5.511h1.196v0.954h-3.522V327.63z"/>
		<path d="M229.245,327.63h1.047l2.541-6.276h-1.169V320.4h2.875l2.931,7.229h1.062v0.954h-3.508v-0.954h1.223l-0.634-1.571h-3.532
			l-0.62,1.571h1.21v0.954h-3.426V327.63z M235.252,325.104l-1.397-3.562l-1.396,3.562H235.252z"/>
		<path d="M239.514,325.856v-4.503h-1.195V320.4h3.572v0.953h-1.193v4.408c0,1.399,0.953,1.923,2.084,1.923
			c1.126,0,2.054-0.538,2.054-1.935v-4.396H243.6V320.4h3.534v0.953h-1.195v4.422c0,1.895-1.265,2.972-3.198,2.972
			C240.991,328.747,239.514,327.859,239.514,325.856z"/>
		<path d="M249.447,327.63h1.289v-6.276h-1.987v1.357h-1.077V320.4h7.313v2.311h-1.091v-1.357h-1.975v6.276h1.291v0.954h-3.764
			V327.63z"/>
	</g>
	<path d="M238.329,58.295l-0.168-0.367l-35.378-40.83l-0.342-0.223L150.606,1.659h-0.408L98.359,16.876l-0.342,0.223l-35.375,40.83
		l-0.172,0.367l-7.688,53.474l0.058,0.398l22.444,49.143l0.267,0.309l45.447,29.202l0.39,0.118h54.021l0.394-0.118l45.451-29.202
		l0.263-0.309l22.443-49.143l0.059-0.398L238.329,58.295z M244.237,109.534l-33.625-38.8L203.3,19.905l33.627,38.809
		L244.237,109.534z M73.381,124.22l56.124,36.07H78.565L73.381,124.22z M76.512,156.14l-19.336-42.329l14.599,9.378L76.512,156.14z
		 M73.108,122.327l-9.139-63.57l86.294-55.46l58.976,68.061l9.994,69.5l-16.844,19.432h-70.21L73.108,122.327z M208.859,68.712
		L152.557,3.739l49.031,14.396L208.859,68.712z M210.991,73.379l33.355,38.497l-23.861,27.533L210.991,73.379z M219.505,142.751
		l2.521,17.54h-17.725L219.505,142.751z M201.134,161.737l-23.858,27.535l-42.846-27.535H201.134z M203.05,161.737h17.345
		l-39.149,25.162L203.05,161.737z M220.759,141.303l21.798-25.154l-19.33,42.322L220.759,141.303z M98.969,18.205l46.808-13.741
		L67.021,55.079L98.969,18.205z M63.189,63.472l8.312,57.822l-15.221-9.782L63.189,63.472z M80.406,161.737h51.35l43.196,27.759
		h-51.349L80.406,161.737z"/>
</g>
</svg>
